<svg id="settings" data-name="Layer 1" xmlns="http://www.w3.org/2000/svg" viewBox="0 0 116.21 116.03">
  <path fill="none" stroke="#000" stroke-width="10"
    d="M8.75 47.05A3.71 3.71 0 0 0 5 50.8v14.62a3.71 3.71 0 0 0 3.75 3.75h6.86a41.05 41.05 0 0 0 4.66 11.15l-4.76 4.76a3.75 3.75 0 0 0 0 5.3l10.33 10.33a3.77 3.77 0 0 0 5.31 0l4.84-4.85a43.85 43.85 0 0 0 11.15 4.57v6.86a3.71 3.71 0 0 0 3.75 3.75h14.62a3.71 3.71 0 0 0 3.75-3.75v-7a43.25 43.25 0 0 0 11.06-4.57l4.94 4.94a3.75 3.75 0 0 0 5.3 0l10.33-10.33a3.75 3.75 0 0 0 0-5.3l-4.94-4.94a43.25 43.25 0 0 0 4.57-11.06h7a3.71 3.71 0 0 0 3.75-3.75V50.71a3.71 3.71 0 0 0-3.75-3.75h-7a43.25 43.25 0 0 0-4.57-11.06l4.94-4.94a3.75 3.75 0 0 0 0-5.3L90.47 15.42a3.75 3.75 0 0 0-5.3 0l-4.85 4.85a47.63 47.63 0 0 0-11.15-4.65V8.75A3.71 3.71 0 0 0 65.42 5H50.8a3.71 3.71 0 0 0-3.75 3.75v6.87a43.85 43.85 0 0 0-11.15 4.57l-4.85-4.85a3.75 3.75 0 0 0-5.3 0L15.42 25.75a3.77 3.77 0 0 0 0 5.31l4.76 4.75a40.48 40.48 0 0 0-4.67 11.24z" />
  <circle fill="none" stroke="#000" stroke-width="10" cx="58.01" cy="58.72" r="22.64" />
</svg>